<svg width="19" height="19" viewBox="0 0 19 19" fill="none" xmlns="http://www.w3.org/2000/svg">
<path opacity="0.4" d="M15.7932 13.766C15.779 13.7488 14.3712 11.9615 14.3712 9.875V7.24625C14.3712 4.5605 12.1857 2.375 9.49997 2.375C6.81422 2.375 4.62872 4.5605 4.62872 7.24625V9.875C4.62872 11.9607 3.22173 13.748 3.20673 13.766C3.11673 13.8785 3.09948 14.033 3.16173 14.1627C3.22398 14.2925 3.35522 14.375 3.49922 14.375H15.4992C15.6432 14.375 15.7745 14.2925 15.8367 14.1627C15.9005 14.0322 15.8825 13.8785 15.7932 13.766Z" fill="#17181D"/>
<path d="M2.75081 7.0625C2.73206 7.0625 2.7133 7.06175 2.6938 7.0595C2.3848 7.02875 2.15906 6.75275 2.19056 6.44375C2.34206 4.9265 2.95557 3.52026 3.96357 2.37726C4.16832 2.14401 4.52456 2.1215 4.75781 2.32775C4.99106 2.53325 5.01282 2.88875 4.80732 3.122C3.95607 4.0865 3.43781 5.27375 3.30956 6.5555C3.28106 6.84576 3.03581 7.0625 2.75081 7.0625Z" fill="#17181D"/>
<path d="M16.2492 7.0625C15.9642 7.0625 15.719 6.84575 15.6905 6.55625C15.5622 5.2745 15.0447 4.08725 14.1927 3.12275C13.9872 2.8895 14.0097 2.534 14.2422 2.3285C14.4755 2.12225 14.831 2.1455 15.0365 2.378C16.0445 3.52025 16.658 4.9265 16.8095 6.4445C16.841 6.7535 16.6152 7.0295 16.3062 7.06025C16.2867 7.06175 16.268 7.0625 16.2492 7.0625Z" fill="#17181D"/>
<path d="M11.123 15.3133C11.0563 15.197 10.9325 15.125 10.7975 15.125H8.20252C8.06827 15.125 7.94452 15.197 7.87702 15.3133C7.80952 15.4295 7.81104 15.5735 7.87854 15.689C8.22054 16.2747 8.82653 16.625 9.50003 16.625C10.1735 16.625 10.7795 16.2747 11.1215 15.689C11.189 15.5735 11.1898 15.4295 11.123 15.3133Z" fill="#17181D"/>
</svg>
