<svg width="24" height="24" viewBox="0 0 24 24" fill="none" xmlns="http://www.w3.org/2000/svg">
<path d="M16.75 9.26025L4.5 9.25024C3.811 9.25024 3.25 9.81124 3.25 10.5002V18.0002C3.25 20.4182 4.582 21.7502 7 21.7502H13C15.418 21.7502 16.75 20.4182 16.75 18.0002V17.7402C18.98 17.6102 20.75 15.7502 20.75 13.5002C20.75 11.2502 18.98 9.39025 16.75 9.26025ZM16.75 16.2402V10.7603C18.15 10.8903 19.25 12.0602 19.25 13.5002C19.25 14.9402 18.15 16.1102 16.75 16.2402ZM12.5 7.75024C12.309 7.75024 12.118 7.67723 11.971 7.53223C11.678 7.24023 11.676 6.76525 11.968 6.47125L12.118 6.32025C12.294 6.14325 12.294 5.85724 12.118 5.68024L11.817 5.37726C11.062 4.61826 11.062 3.38225 11.817 2.62225L11.967 2.47125C12.259 2.17825 12.734 2.17526 13.028 2.46826C13.321 2.76026 13.323 3.23523 13.031 3.52923L12.881 3.68024C12.705 3.85724 12.705 4.14325 12.881 4.32025L13.182 4.62323C13.937 5.38223 13.937 6.61823 13.182 7.37823L13.032 7.52923C12.885 7.67623 12.693 7.75024 12.5 7.75024ZM7.5 7.75024C7.309 7.75024 7.11799 7.67723 6.97099 7.53223C6.67799 7.24023 6.676 6.76525 6.968 6.47125L7.118 6.32025C7.294 6.14325 7.294 5.85724 7.118 5.68024L6.817 5.37726C6.062 4.61826 6.062 3.38225 6.817 2.62225L6.967 2.47125C7.259 2.17825 7.734 2.17526 8.028 2.46826C8.321 2.76026 8.32301 3.23523 8.03101 3.52923L7.881 3.68024C7.705 3.85724 7.705 4.14325 7.881 4.32025L8.18201 4.62323C8.93701 5.38223 8.93701 6.61823 8.18201 7.37823L8.032 7.52923C7.885 7.67623 7.693 7.75024 7.5 7.75024Z" fill="#151D2F"/>
</svg>
