<svg width="24" height="24" viewBox="0 0 24 24" fill="none" xmlns="http://www.w3.org/2000/svg">
<path d="M4.77344 8.21875C4.94429 8.21742 5.113 8.25679 5.26562 8.3336V14.6697C5.11221 14.7439 4.94386 14.7821 4.77344 14.7813C4.46895 14.7809 4.17704 14.6598 3.96173 14.4445C3.74643 14.2292 3.62533 13.9373 3.625 13.6328V9.36719C3.62533 9.06271 3.74643 8.77079 3.96173 8.55549C4.17704 8.34018 4.46895 8.21908 4.77344 8.21875ZM15.7656 5.92188C15.5932 5.92164 15.4224 5.95543 15.2631 6.02131C15.1037 6.08719 14.959 6.18385 14.837 6.30578C14.7151 6.4277 14.6184 6.57248 14.5526 6.73183C14.4867 6.89117 14.4529 7.06195 14.4531 7.23438V10.5156H8.54688V7.23438C8.54688 6.88628 8.40859 6.55244 8.16245 6.3063C7.91631 6.06016 7.58247 5.92188 7.23438 5.92188C6.88628 5.92188 6.55244 6.06016 6.3063 6.3063C6.06016 6.55244 5.92188 6.88628 5.92188 7.23438V15.7656C5.92188 16.1137 6.06016 16.4476 6.3063 16.6937C6.55244 16.9398 6.88628 17.0781 7.23438 17.0781C7.58247 17.0781 7.91631 16.9398 8.16245 16.6937C8.40859 16.4476 8.54688 16.1137 8.54688 15.7656V12.4844H14.4531V15.7656C14.4531 16.1137 14.5914 16.4476 14.8375 16.6937C15.0837 16.9398 15.4175 17.0781 15.7656 17.0781C16.1137 17.0781 16.4476 16.9398 16.6937 16.6937C16.9398 16.4476 17.0781 16.1137 17.0781 15.7656V7.23438C17.0782 7.062 17.0443 6.89131 16.9783 6.73205C16.9124 6.57279 16.8157 6.42808 16.6938 6.30619C16.5719 6.18431 16.4272 6.08763 16.268 6.02169C16.1087 5.95575 15.938 5.92183 15.7656 5.92188ZM18.2266 8.21875C18.0557 8.21742 17.887 8.25679 17.7344 8.3336V14.6697C17.8878 14.7439 18.0561 14.7821 18.2266 14.7813C18.531 14.7809 18.823 14.6598 19.0383 14.4445C19.2536 14.2292 19.3747 13.9373 19.375 13.6328V9.36719C19.3747 9.06271 19.2536 8.77079 19.0383 8.55549C18.823 8.34018 18.531 8.21908 18.2266 8.21875ZM20.3594 10.5156H20.0312V12.4844H20.3594C20.6204 12.4844 20.8708 12.3807 21.0554 12.1961C21.24 12.0115 21.3438 11.7611 21.3438 11.5C21.3438 11.2389 21.24 10.9885 21.0554 10.8039C20.8708 10.6193 20.6204 10.5156 20.3594 10.5156ZM1.65625 11.5C1.65625 11.7611 1.75996 12.0115 1.94457 12.1961C2.12917 12.3807 2.37955 12.4844 2.64062 12.4844H2.96875V10.5156H2.64062C2.37955 10.5156 2.12917 10.6193 1.94457 10.8039C1.75996 10.9885 1.65625 11.2389 1.65625 11.5Z" fill="#151D2F"/>
</svg>
