<svg width="24" height="24" viewBox="0 0 24 24" fill="none" xmlns="http://www.w3.org/2000/svg">
<path d="M17.712 13.8203L14.351 9.50027H15.489C16.331 9.50027 16.804 8.52929 16.286 7.86429L12.797 3.38925C12.392 2.87025 11.608 2.87025 11.203 3.38925L7.71401 7.86429C7.19601 8.52929 7.66901 9.50027 8.51101 9.50027H9.64901L6.28802 13.8203C5.59802 14.7103 6.22802 16.0003 7.34802 16.0003H11.25V21.0003C11.25 21.4143 11.586 21.7503 12 21.7503C12.414 21.7503 12.75 21.4143 12.75 21.0003V16.0003H16.652C17.772 16.0003 18.403 14.7103 17.712 13.8203Z" fill="#151D2F"/>
</svg>
