<svg width="24" height="24" viewBox="0 0 24 24" fill="none" xmlns="http://www.w3.org/2000/svg">
<path d="M11 2C15.9705 2 19.9999 5.97957 20 10.8887C20 15.7979 14.375 22 11 22C7.625 22 2 15.7979 2 10.8887C2.00012 5.97957 6.02951 2 11 2ZM11 6C8.23858 6 6 8.23858 6 11C6 12.6967 6.84545 14.1957 8.1377 15.0996C8.9486 15.6668 9.9353 16 11 16C12.0647 16 13.0514 15.6668 13.8623 15.0996C15.1545 14.1957 16 12.6967 16 11C16 8.23858 13.7614 6 11 6ZM11 11.5C12.3433 11.5 13.1177 12.2829 13.5 13.5C12.6891 14.0673 12.0647 14.5 11 14.5C9.93533 14.5 9.3109 14.0672 8.5 13.5C8.88229 12.2829 9.65678 11.5 11 11.5ZM11 7.5C11.8284 7.5 12.5 8.17157 12.5 9C12.5 9.82843 11.8284 10.5 11 10.5C10.1716 10.5 9.5 9.82843 9.5 9C9.5 8.17157 10.1716 7.5 11 7.5Z" fill="#151D2F"/>
</svg>
