<svg width="56" height="56" viewBox="0 0 56 56" fill="none" xmlns="http://www.w3.org/2000/svg">
<g filter="url(#filter0_d_1861_2809)">
<rect x="4" y="2" width="48" height="48" rx="8" fill="white"/>
<path opacity="0.4" d="M16.0027 25.9987C16.0027 27.7854 16.4028 29.492 17.1094 31.012C17.3894 31.5986 17.3895 32.2787 17.1895 32.9053L16.0694 36.2387C15.7227 37.2787 16.7228 38.2786 17.7628 37.932L21.0961 36.812C21.7228 36.612 22.4027 36.612 22.9893 36.892C24.5093 37.5987 26.216 37.9987 28.0027 37.9987C34.6293 37.9987 40.0014 32.6267 40.0014 26C40.0014 19.3733 34.6293 14.0013 28.0027 14.0013C21.3747 14 16.0027 19.372 16.0027 25.9987Z" fill="#FF5630"/>
<path d="M27.9961 28.1493C27.8868 28.1493 27.7773 28.132 27.6693 28.0933C27.156 27.9107 26.8775 27.3653 27.0521 26.848C27.3228 26.0466 28.1146 25.4493 28.6866 25.0706C29.5346 24.508 29.5439 23.936 29.4773 23.5547C29.3733 22.9667 28.8706 22.464 28.2813 22.36C27.8333 22.28 27.3841 22.3946 27.0375 22.6853C26.6961 22.972 26.5013 23.3906 26.5013 23.8346C26.5013 24.3866 26.0533 24.8346 25.5013 24.8346C24.9493 24.8346 24.5013 24.3866 24.5013 23.8346C24.5013 22.7973 24.9573 21.8213 25.752 21.1533C26.5467 20.4866 27.592 20.208 28.628 20.3893C30.04 20.6373 31.1987 21.796 31.4467 23.208C31.6933 24.6107 31.1066 25.864 29.7946 26.736C29.0533 27.228 28.952 27.4787 28.948 27.488C28.796 27.8907 28.4068 28.1493 27.9961 28.1493ZM29.3601 30.6666C29.3601 29.9306 28.7641 29.3333 28.0267 29.3333H28.0134C27.2774 29.3333 26.6866 29.9306 26.6866 30.6666C26.6866 31.4026 27.2907 32 28.0267 32C28.7627 32 29.3601 31.4026 29.3601 30.6666Z" fill="#FF5630"/>
</g>
<defs>
<filter id="filter0_d_1861_2809" x="0" y="0" width="56" height="56" filterUnits="userSpaceOnUse" color-interpolation-filters="sRGB">
<feFlood flood-opacity="0" result="BackgroundImageFix"/>
<feColorMatrix in="SourceAlpha" type="matrix" values="0 0 0 0 0 0 0 0 0 0 0 0 0 0 0 0 0 0 127 0" result="hardAlpha"/>
<feOffset dy="2"/>
<feGaussianBlur stdDeviation="2"/>
<feComposite in2="hardAlpha" operator="out"/>
<feColorMatrix type="matrix" values="0 0 0 0 0 0 0 0 0 0 0 0 0 0 0 0 0 0 0.24 0"/>
<feBlend mode="normal" in2="BackgroundImageFix" result="effect1_dropShadow_1861_2809"/>
<feBlend mode="normal" in="SourceGraphic" in2="effect1_dropShadow_1861_2809" result="shape"/>
</filter>
</defs>
</svg>
