<svg width="56" height="56" viewBox="0 0 56 56" fill="none" xmlns="http://www.w3.org/2000/svg">
<g filter="url(#filter0_d_1861_2797)">
<rect x="4" y="2" width="48" height="48" rx="8" fill="white"/>
<rect width="32" height="32" transform="translate(12 10)" fill="white"/>
<path opacity="0.4" d="M39.8933 25.0387C39.476 24.5653 38.6893 24 37.3213 24C37.2667 24 37.212 24.0067 37.16 24.02C37.12 24.0294 33.1733 25 27.9947 25C22.816 25 18.8693 24.0294 18.8293 24.02C18.776 24.0067 18.7227 24 18.668 24C17.3 24 16.5134 24.5653 16.096 25.0387C15.4894 25.7253 15.2293 26.6867 15.3627 27.7467L15.8827 31.912C16.2067 34.5093 17.8947 36 20.512 36H35.48C38.0973 36 39.7853 34.5107 40.1093 31.912L40.6293 27.7467C40.7587 26.6867 40.4987 25.7253 39.8933 25.0387Z" fill="#347EC2"/>
<path d="M38.7734 24.2667C38.3867 24.1067 37.92 24 37.3334 24C37.2667 24 37.2133 24.0134 37.16 24.0134C37.16 24.0134 37.0134 24.0533 36.7467 24.1067L36.24 20.1467C35.9333 18.2933 35.8267 17.6667 33.28 17.6667H22.72C20.1733 17.6667 20.0667 18.2933 19.76 20.1733L19.2534 24.1067C18.9867 24.0533 18.84 24.0134 18.84 24.0134C18.7867 24.0134 18.7334 24 18.6667 24C18.08 24 17.6134 24.1067 17.2267 24.2667L17.7867 19.88C18.1067 17.8933 18.48 15.6667 22.72 15.6667H33.28C37.52 15.6667 37.8934 17.8934 38.2134 19.8534L38.7734 24.2667Z" fill="#347EC2"/>
<path opacity="0.4" d="M30 15H26C25.448 15 25 14.552 25 14C25 13.448 25.448 13 26 13H30C30.552 13 31 13.448 31 14C31 14.552 30.552 15 30 15Z" fill="#347EC2"/>
<path d="M37.6667 35.56V37C37.6667 37.5467 37.2134 38 36.6667 38C36.12 38 35.6667 37.5467 35.6667 37V36C36.4134 35.9733 37.08 35.8267 37.6667 35.56Z" fill="#347EC2"/>
<path d="M20.3333 36V37C20.3333 37.5467 19.88 38 19.3333 38C18.7866 38 18.3333 37.5467 18.3333 37V35.5733C18.92 35.84 19.5866 35.9733 20.3333 36Z" fill="#347EC2"/>
<path opacity="0.4" d="M40 23H37.48C36.928 23 36.48 22.552 36.48 22C36.48 21.448 36.928 21 37.48 21H40C40.552 21 41 21.448 41 22C41 22.552 40.552 23 40 23Z" fill="#1469B5"/>
<path d="M34.3333 31H32.3333C31.7813 31 31.3333 30.552 31.3333 30C31.3333 29.448 31.7813 29 32.3333 29H34.3333C34.8853 29 35.3333 29.448 35.3333 30C35.3333 30.552 34.8853 31 34.3333 31Z" fill="#1469B5"/>
<path d="M23.6667 31H21.6667C21.1147 31 20.6667 30.552 20.6667 30C20.6667 29.448 21.1147 29 21.6667 29H23.6667C24.2187 29 24.6667 29.448 24.6667 30C24.6667 30.552 24.2187 31 23.6667 31Z" fill="#1469B5"/>
<path opacity="0.4" d="M18.52 23H16C15.448 23 15 22.552 15 22C15 21.448 15.448 21 16 21H18.52C19.072 21 19.52 21.448 19.52 22C19.52 22.552 19.072 23 18.52 23Z" fill="#1469B5"/>
</g>
<defs>
<filter id="filter0_d_1861_2797" x="0" y="0" width="56" height="56" filterUnits="userSpaceOnUse" color-interpolation-filters="sRGB">
<feFlood flood-opacity="0" result="BackgroundImageFix"/>
<feColorMatrix in="SourceAlpha" type="matrix" values="0 0 0 0 0 0 0 0 0 0 0 0 0 0 0 0 0 0 127 0" result="hardAlpha"/>
<feOffset dy="2"/>
<feGaussianBlur stdDeviation="2"/>
<feComposite in2="hardAlpha" operator="out"/>
<feColorMatrix type="matrix" values="0 0 0 0 0 0 0 0 0 0 0 0 0 0 0 0 0 0 0.24 0"/>
<feBlend mode="normal" in2="BackgroundImageFix" result="effect1_dropShadow_1861_2797"/>
<feBlend mode="normal" in="SourceGraphic" in2="effect1_dropShadow_1861_2797" result="shape"/>
</filter>
</defs>
</svg>
