<svg width="56" height="56" viewBox="0 0 56 56" fill="none" xmlns="http://www.w3.org/2000/svg">
<g filter="url(#filter0_d_1861_2791)">
<rect x="4" y="2" width="48" height="48" rx="8" fill="white"/>
<path opacity="0.4" d="M28 39.3333C35.3638 39.3333 41.3334 33.3638 41.3334 26C41.3334 18.6362 35.3638 12.6667 28 12.6667C20.6362 12.6667 14.6667 18.6362 14.6667 26C14.6667 33.3638 20.6362 39.3333 28 39.3333Z" fill="#8322FF"/>
<path d="M26.5853 27.4147C25.804 26.6333 25.804 25.3667 26.5853 24.5867C27.148 24.024 30.4027 22.2373 32.1773 21.2827C32.5267 21.0947 32.904 21.4733 32.7173 21.8227C31.7627 23.5987 29.976 26.852 29.4133 27.4147C28.6333 28.1947 27.3667 28.1947 26.5853 27.4147ZM21.5893 30.8613C22.064 30.58 22.2227 29.9667 21.9413 29.492C21.3173 28.436 21 27.2613 21 26.0013C21 21.6333 25.0787 18.216 29.524 19.1653C30.0613 19.28 30.596 18.9373 30.7107 18.3973C30.8253 17.8573 30.4827 17.3253 29.9413 17.2107C29.2853 17.0707 28.6507 17.0027 27.9987 17.0027C23.036 17.0027 18.9987 21.04 18.9987 26.0027C18.9987 27.6027 19.42 29.1613 20.2187 30.512C20.4053 30.828 20.7387 31.0027 21.08 31.0027C21.2533 31 21.4293 30.956 21.5893 30.8613ZM35.78 30.5093C36.5773 29.16 37 27.6013 37 26C37 25.3467 36.932 24.7107 36.7906 24.056C36.6747 23.516 36.1453 23.1733 35.6027 23.2893C35.0627 23.4053 34.7187 23.9373 34.8347 24.4773C34.9453 24.992 35 25.4907 35 26C35 27.26 34.684 28.4347 34.0587 29.4907C33.7773 29.9667 33.9347 30.5787 34.4107 30.86C34.5707 30.9547 34.7453 30.9987 34.9187 30.9987C35.2613 31 35.5947 30.824 35.78 30.5093Z" fill="#8322FF"/>
</g>
<defs>
<filter id="filter0_d_1861_2791" x="0" y="0" width="56" height="56" filterUnits="userSpaceOnUse" color-interpolation-filters="sRGB">
<feFlood flood-opacity="0" result="BackgroundImageFix"/>
<feColorMatrix in="SourceAlpha" type="matrix" values="0 0 0 0 0 0 0 0 0 0 0 0 0 0 0 0 0 0 127 0" result="hardAlpha"/>
<feOffset dy="2"/>
<feGaussianBlur stdDeviation="2"/>
<feComposite in2="hardAlpha" operator="out"/>
<feColorMatrix type="matrix" values="0 0 0 0 0 0 0 0 0 0 0 0 0 0 0 0 0 0 0.24 0"/>
<feBlend mode="normal" in2="BackgroundImageFix" result="effect1_dropShadow_1861_2791"/>
<feBlend mode="normal" in="SourceGraphic" in2="effect1_dropShadow_1861_2791" result="shape"/>
</filter>
</defs>
</svg>
