<svg width="68" height="68" viewBox="0 0 68 68" fill="none" xmlns="http://www.w3.org/2000/svg">
<g filter="url(#filter0_d_1865_5444)">
<rect x="4" y="2" width="60" height="60" rx="8" fill="white" fill-opacity="0.08" shape-rendering="crispEdges"/>
<path opacity="0.4" d="M37.307 34.3151H31.3586C25.2502 34.3151 23.0836 38.7683 23.0836 42.5817C23.0836 45.9683 24.9686 47.8317 28.3886 47.8317H40.2786C43.6986 47.8317 45.5836 45.9667 45.5836 42.5817C45.582 38.77 43.4154 34.3151 37.307 34.3151Z" fill="#1469B5"/>
<path d="M34.3455 31.1866C37.5821 31.1866 40.2138 28.565 40.2138 25.3433C40.2138 22.12 37.5805 19.5 34.3455 19.5C31.1105 19.5 28.4788 22.1216 28.4788 25.3433C28.4788 28.565 31.1088 31.1866 34.3455 31.1866Z" fill="#1469B5"/>
<path opacity="0.4" d="M51.8319 33.0834C51.8319 35.6834 50.3985 37.1166 47.7818 37.1166H47.082C46.8653 37.1166 46.6986 37 46.6152 36.8167C45.3986 34.6167 43.3486 32.8833 40.3986 32.1833C40.0153 32.0833 39.8485 31.6166 40.1319 31.35C41.2819 30.2666 42.1153 28.8501 42.4819 27.2667C42.5319 27.0501 42.732 26.8834 42.9653 26.8834H45.6486C50.2153 26.8834 51.8319 30.2334 51.8319 33.0834Z" fill="#1469B5"/>
<path d="M47.9655 20.6167C47.9655 23.0834 45.9654 25.0833 43.5154 25.0833C43.3921 25.0833 43.2704 25.0766 43.152 25.0666C42.9987 25.0533 42.8855 25.0034 42.8088 24.9218C42.7322 24.8401 42.6888 24.7618 42.6788 24.6351C42.5005 22.3834 41.4121 20.3916 39.7805 19.0166C39.6788 18.9299 39.6287 18.8717 39.6037 18.7617C39.5803 18.6567 39.577 18.5366 39.6387 18.425C40.402 17.0766 41.8521 16.165 43.5154 16.165C45.9654 16.1667 47.9655 18.1667 47.9655 20.6167Z" fill="#1469B5"/>
<path opacity="0.4" d="M16.832 33.0834C16.832 35.6834 18.2655 37.1166 20.8821 37.1166H21.582C21.7987 37.1166 21.9654 37 22.0487 36.8167C23.2654 34.6167 25.3153 32.8833 28.2653 32.1833C28.6487 32.0833 28.8154 31.6166 28.5321 31.35C27.3821 30.2666 26.5487 28.8501 26.182 27.2667C26.132 27.0501 25.9319 26.8834 25.6986 26.8834H23.0153C18.4486 26.8834 16.832 30.2334 16.832 33.0834Z" fill="#1469B5"/>
<path d="M20.6986 20.6167C20.6986 23.0834 22.6987 25.0833 25.1487 25.0833C25.272 25.0833 25.3937 25.0766 25.512 25.0666C25.6654 25.0533 25.7786 25.0034 25.8553 24.9218C25.9319 24.8401 25.9753 24.7618 25.9853 24.6351C26.1636 22.3834 27.252 20.3916 28.8836 19.0166C28.9853 18.9299 29.0354 18.8717 29.0604 18.7617C29.0838 18.6567 29.0871 18.5366 29.0254 18.425C28.2621 17.0766 26.812 16.165 25.1487 16.165C22.6987 16.1667 20.6986 18.1667 20.6986 20.6167Z" fill="#1469B5"/>
</g>
<defs>
<filter id="filter0_d_1865_5444" x="0" y="0" width="68" height="68" filterUnits="userSpaceOnUse" color-interpolation-filters="sRGB">
<feFlood flood-opacity="0" result="BackgroundImageFix"/>
<feColorMatrix in="SourceAlpha" type="matrix" values="0 0 0 0 0 0 0 0 0 0 0 0 0 0 0 0 0 0 127 0" result="hardAlpha"/>
<feOffset dy="2"/>
<feGaussianBlur stdDeviation="2"/>
<feComposite in2="hardAlpha" operator="out"/>
<feColorMatrix type="matrix" values="0 0 0 0 0 0 0 0 0 0 0 0 0 0 0 0 0 0 0.24 0"/>
<feBlend mode="normal" in2="BackgroundImageFix" result="effect1_dropShadow_1865_5444"/>
<feBlend mode="normal" in="SourceGraphic" in2="effect1_dropShadow_1865_5444" result="shape"/>
</filter>
</defs>
</svg>
