<svg width="68" height="68" viewBox="0 0 68 68" fill="none" xmlns="http://www.w3.org/2000/svg">
<g filter="url(#filter0_d_1865_5516)">
<rect x="4" y="2" width="60" height="60" rx="12.0816" fill="white"/>
<path opacity="0.4" d="M46 22H20C17.8 22 16 20.2 16 18V44C16 48 18 50 22 50H46C50 50 52 48 52 44V28C52 24 50 22 46 22Z" fill="#1469B5"/>
<path d="M43 31C40.24 31 38 33.24 38 36C38 37.38 38.56 38.64 39.46 39.54C40.36 40.44 41.62 41 43 41H52V31H43ZM44 38C42.9 38 42 37.1 42 36C42 34.9 42.9 34 44 34C45.1 34 46 34.9 46 36C46 37.1 45.1 38 44 38Z" fill="#1469B5"/>
<path d="M16 18C16 19.1 16.4401 20.0999 17.1801 20.8199C17.9001 21.5599 18.9 22 20 22H46V20C46 16 44 14 40 14H20C17.8 14 16 15.8 16 18Z" fill="#1469B5"/>
</g>
<defs>
<filter id="filter0_d_1865_5516" x="0" y="0" width="68" height="68" filterUnits="userSpaceOnUse" color-interpolation-filters="sRGB">
<feFlood flood-opacity="0" result="BackgroundImageFix"/>
<feColorMatrix in="SourceAlpha" type="matrix" values="0 0 0 0 0 0 0 0 0 0 0 0 0 0 0 0 0 0 127 0" result="hardAlpha"/>
<feOffset dy="2"/>
<feGaussianBlur stdDeviation="2"/>
<feComposite in2="hardAlpha" operator="out"/>
<feColorMatrix type="matrix" values="0 0 0 0 0 0 0 0 0 0 0 0 0 0 0 0 0 0 0.24 0"/>
<feBlend mode="normal" in2="BackgroundImageFix" result="effect1_dropShadow_1865_5516"/>
<feBlend mode="normal" in="SourceGraphic" in2="effect1_dropShadow_1865_5516" result="shape"/>
</filter>
</defs>
</svg>
