<svg width="18" height="19" viewBox="0 0 18 19" fill="none" xmlns="http://www.w3.org/2000/svg">
<path opacity="0.3" d="M9.00002 17L8.25002 14.75H3.00002C2.58752 14.75 2.23502 14.603 1.94102 14.3097C1.79903 14.1726 1.68665 14.0078 1.6108 13.8255C1.53495 13.6433 1.49725 13.4474 1.50002 13.25V3.5C1.50002 3.0875 1.64702 2.73425 1.94102 2.44025C2.0781 2.29842 2.24279 2.18618 2.42493 2.11046C2.60707 2.03474 2.80279 1.99715 3.00002 2H7.50002L8.15627 4.25H15C15.4373 4.25 15.7973 4.39025 16.0785 4.6715C16.3598 4.95275 16.5 5.31275 16.5 5.75V15.5C16.5035 15.6958 16.468 15.8903 16.3956 16.0722C16.3233 16.2541 16.2155 16.4198 16.0785 16.5597C15.7973 16.853 15.4373 17 15 17H9.00002Z" fill="#17181D"/>
<path d="M9.74998 16.25H15C15.225 16.25 15.4065 16.178 15.5437 16.034C15.6117 15.9631 15.665 15.8793 15.7004 15.7877C15.7358 15.696 15.7526 15.5982 15.75 15.5V5.75C15.75 5.525 15.681 5.3435 15.5437 5.20625C15.4065 5.069 15.225 5 15 5H8.38123L9.26248 8.0375H10.7437V7.25H11.5125V8.0375H14.25V8.80625H13.2937C13.165 9.29046 12.976 9.7566 12.7312 10.1938C12.4823 10.6422 12.1869 11.0633 11.85 11.45L13.8937 13.4562L13.35 14L11.325 11.975L10.65 12.6688L11.25 14.75L9.74998 16.25Z" fill="#17181D"/>
<path d="M11.325 10.8687C11.6752 10.4562 11.9407 10.0625 12.1222 9.6875C12.303 9.3125 12.4252 9.0185 12.4875 8.80625H9.5062L9.7312 9.59375H10.4812C10.581 9.78125 10.7002 9.9845 10.8375 10.2035C10.9747 10.4217 11.1375 10.6437 11.325 10.8687ZM10.3875 11.825L10.8 11.4312C10.6339 11.2303 10.4746 11.024 10.3222 10.8125C10.1735 10.6054 10.0326 10.3928 9.89995 10.175L10.3875 11.825ZM5.36245 11.45C6.22495 11.45 6.93445 11.1725 7.49095 10.616C8.0467 10.0595 8.32495 9.33725 8.32495 8.45C8.32526 8.35917 8.32226 8.26836 8.31595 8.17775C8.3086 8.09214 8.29277 8.00748 8.2687 7.925H5.3062V9.0875H6.97495C6.88798 9.41901 6.68492 9.70829 6.4027 9.90275C6.12145 10.097 5.78095 10.1937 5.3812 10.1937C4.8937 10.1937 4.4752 10.019 4.12495 9.66875C3.7747 9.3185 3.59995 8.88725 3.59995 8.375C3.59995 7.86275 3.7747 7.4315 4.12495 7.08125C4.28737 6.91255 4.48264 6.77893 4.6987 6.68864C4.91477 6.59834 5.14705 6.55329 5.3812 6.55625C5.6062 6.55625 5.81845 6.59675 6.0187 6.67775C6.21895 6.7595 6.3997 6.881 6.56245 7.04375L7.4812 6.1625C7.2187 5.88725 6.9037 5.675 6.5347 5.525C6.16234 5.37434 5.76413 5.2979 5.36245 5.3C4.5247 5.3 3.80995 5.597 3.21595 6.19025C2.62195 6.78425 2.32495 7.5125 2.32495 8.375C2.32495 9.2375 2.62195 9.965 3.21595 10.559C3.8092 11.153 4.5247 11.45 5.36245 11.45Z" fill="#17181D"/>
</svg>
