<svg width="37" height="38" viewBox="0 0 37 38" fill="none" xmlns="http://www.w3.org/2000/svg">
<g filter="url(#filter0_d_2239_1956)">
<ellipse cx="16.5544" cy="17.9454" rx="12" ry="12.4444" fill="url(#paint0_linear_2239_1956)"/>
</g>
<path d="M16.1111 21.7593C18.4021 21.7593 20.2592 19.9021 20.2592 17.6111C20.2592 15.3202 18.4021 13.463 16.1111 13.463C13.8201 13.463 11.963 15.3202 11.963 17.6111C11.963 19.9021 13.8201 21.7593 16.1111 21.7593Z" fill="#1469B5"/>
<path d="M16.1111 24.1059C15.7852 24.1059 15.5185 23.863 15.5185 23.537V23.4896C15.5185 23.1637 15.7852 22.897 16.1111 22.897C16.437 22.897 16.7037 23.1637 16.7037 23.4896C16.7037 23.8156 16.437 24.1059 16.1111 24.1059ZM20.3422 22.4348C20.1881 22.4348 20.04 22.3756 19.9215 22.263L19.8444 22.1859C19.6133 21.9548 19.6133 21.5815 19.8444 21.3504C20.0756 21.1193 20.4489 21.1193 20.68 21.3504L20.757 21.4274C20.9881 21.6585 20.9881 22.0319 20.757 22.263C20.6444 22.3756 20.4963 22.4348 20.3422 22.4348ZM11.88 22.4348C11.7259 22.4348 11.5778 22.3756 11.4593 22.263C11.2281 22.0319 11.2281 21.6585 11.4593 21.4274L11.5363 21.3504C11.7674 21.1193 12.1407 21.1193 12.3719 21.3504C12.603 21.5815 12.603 21.9548 12.3719 22.1859L12.2948 22.263C12.1822 22.3756 12.0281 22.4348 11.88 22.4348ZM22.037 18.2037H21.9896C21.6637 18.2037 21.397 17.937 21.397 17.6111C21.397 17.2852 21.6637 17.0185 21.9896 17.0185C22.3156 17.0185 22.6059 17.2852 22.6059 17.6111C22.6059 17.937 22.363 18.2037 22.037 18.2037ZM10.2326 18.2037H10.1852C9.85926 18.2037 9.59259 17.937 9.59259 17.6111C9.59259 17.2852 9.85926 17.0185 10.1852 17.0185C10.5111 17.0185 10.8015 17.2852 10.8015 17.6111C10.8015 17.937 10.5585 18.2037 10.2326 18.2037ZM20.2652 14.0496C20.1111 14.0496 19.963 13.9904 19.8444 13.8778C19.6133 13.6467 19.6133 13.2733 19.8444 13.0422L19.9215 12.9652C20.1526 12.7341 20.5259 12.7341 20.757 12.9652C20.9881 13.1963 20.9881 13.5696 20.757 13.8007L20.68 13.8778C20.5674 13.9904 20.4193 14.0496 20.2652 14.0496ZM11.957 14.0496C11.803 14.0496 11.6548 13.9904 11.5363 13.8778L11.4593 13.7948C11.2281 13.5637 11.2281 13.1904 11.4593 12.9593C11.6904 12.7281 12.0637 12.7281 12.2948 12.9593L12.3719 13.0363C12.603 13.2674 12.603 13.6407 12.3719 13.8719C12.2593 13.9904 12.1052 14.0496 11.957 14.0496ZM16.1111 12.3015C15.7852 12.3015 15.5185 12.0585 15.5185 11.7326V11.6852C15.5185 11.3593 15.7852 11.0926 16.1111 11.0926C16.437 11.0926 16.7037 11.3593 16.7037 11.6852C16.7037 12.0111 16.437 12.3015 16.1111 12.3015Z" fill="#1469B5"/>
<defs>
<filter id="filter0_d_2239_1956" x="0.554443" y="0.500977" width="36" height="36.8889" filterUnits="userSpaceOnUse" color-interpolation-filters="sRGB">
<feFlood flood-opacity="0" result="BackgroundImageFix"/>
<feColorMatrix in="SourceAlpha" type="matrix" values="0 0 0 0 0 0 0 0 0 0 0 0 0 0 0 0 0 0 127 0" result="hardAlpha"/>
<feOffset dx="2" dy="1"/>
<feGaussianBlur stdDeviation="3"/>
<feColorMatrix type="matrix" values="0 0 0 0 0 0 0 0 0 0 0 0 0 0 0 0 0 0 0.25 0"/>
<feBlend mode="normal" in2="BackgroundImageFix" result="effect1_dropShadow_2239_1956"/>
<feBlend mode="normal" in="SourceGraphic" in2="effect1_dropShadow_2239_1956" result="shape"/>
</filter>
<linearGradient id="paint0_linear_2239_1956" x1="16.5544" y1="5.50098" x2="16.5544" y2="30.3899" gradientUnits="userSpaceOnUse">
<stop stop-color="white"/>
<stop offset="1" stop-color="#F3F3F3"/>
</linearGradient>
</defs>
</svg>
