<svg width="40" height="41" viewBox="0 0 40 41" fill="none" xmlns="http://www.w3.org/2000/svg">
<rect y="0.5" width="40" height="40" rx="4" fill="#F6F7F9"/>
<path d="M10.25 14.5C10.25 14.086 10.586 13.75 11 13.75H29C29.414 13.75 29.75 14.086 29.75 14.5C29.75 14.914 29.414 15.25 29 15.25H11C10.586 15.25 10.25 14.914 10.25 14.5ZM29 19.75H11C10.586 19.75 10.25 20.086 10.25 20.5C10.25 20.914 10.586 21.25 11 21.25H29C29.414 21.25 29.75 20.914 29.75 20.5C29.75 20.086 29.414 19.75 29 19.75ZM29 25.75H11C10.586 25.75 10.25 26.086 10.25 26.5C10.25 26.914 10.586 27.25 11 27.25H29C29.414 27.25 29.75 26.914 29.75 26.5C29.75 26.086 29.414 25.75 29 25.75Z" fill="#17181D"/>
</svg>
